<?xml version="1.0" encoding="UTF-8"?>
<!DOCTYPE svg PUBLIC "-//W3C//DTD SVG 1.1//EN" "http://www.w3.org/Graphics/SVG/1.1/DTD/svg11.dtd">
<svg xmlns="http://www.w3.org/2000/svg" version="1.1" width="64px" height="64px" style="shape-rendering:geometricPrecision; text-rendering:geometricPrecision; image-rendering:optimizeQuality; fill-rule:evenodd; clip-rule:evenodd" xmlns:xlink="http://www.w3.org/1999/xlink">
<g><path style="opacity:0.32" fill="#000000" d="M 19.5,5.5 C 20.5,5.5 21.5,5.5 22.5,5.5C 22.5,6.5 22.5,7.5 22.5,8.5C 21.5,8.5 20.5,8.5 19.5,8.5C 19.5,7.5 19.5,6.5 19.5,5.5 Z"/></g>
<g><path style="opacity:0.436" fill="#000000" d="M 45.5,7.5 C 47.1765,8.18342 47.8432,9.51676 47.5,11.5C 46.5,11.5 45.5,11.5 44.5,11.5C 44.4326,10.0413 44.7659,8.70792 45.5,7.5 Z"/></g>
<g><path style="opacity:0.512" fill="#000000" d="M 8.5,8.5 C 12.1612,8.35012 13.1612,9.85012 11.5,13C 7.70713,13.4866 6.70713,11.9866 8.5,8.5 Z"/></g>
<g><path style="opacity:0.875" fill="#000000" d="M 29.5,9.5 C 36.2785,13.1058 42.9452,16.9392 49.5,21C 51.6631,23.4427 51.8298,25.9427 50,28.5C 49.044,29.8941 47.7106,30.5607 46,30.5C 42.8464,29.8398 40.0131,28.5065 37.5,26.5C 36.6687,33.8108 36.1687,41.1441 36,48.5C 32,55.1667 28,55.1667 24,48.5C 23.8313,41.1441 23.3313,33.8108 22.5,26.5C 19.9869,28.5065 17.1536,29.8398 14,30.5C 8.74244,28.8207 7.57577,25.6541 10.5,21C 17.0044,17.3034 23.3378,13.4701 29.5,9.5 Z"/></g>
<g><path style="opacity:0.479" fill="#000000" d="M 52.5,35.5 C 53.5,35.5 54.5,35.5 55.5,35.5C 55.5,36.5 55.5,37.5 55.5,38.5C 52.5065,38.8543 51.5065,37.8543 52.5,35.5 Z"/></g>
<g><path style="opacity:0.532" fill="#000000" d="M 9.5,39.5 C 10.5,39.5 11.5,39.5 12.5,39.5C 12.5,40.5 12.5,41.5 12.5,42.5C 11.5,42.5 10.5,42.5 9.5,42.5C 9.5,41.5 9.5,40.5 9.5,39.5 Z"/></g>
<g><path style="opacity:0.598" fill="#000000" d="M 44.5,42.5 C 45.8333,42.5 47.1667,42.5 48.5,42.5C 48.5,43.8333 48.5,45.1667 48.5,46.5C 44.56,47.234 43.2266,45.9007 44.5,42.5 Z"/></g>
<g><path style="opacity:0.695" fill="#000000" d="M 8.5,47.5 C 14.1581,46.6794 15.8248,48.846 13.5,54C 8.26158,54.5941 6.59492,52.4274 8.5,47.5 Z"/></g>
<g><path style="opacity:0.479" fill="#000000" d="M 42.5,54.5 C 43.5,54.5 44.5,54.5 45.5,54.5C 45.5,55.5 45.5,56.5 45.5,57.5C 42.5065,57.8543 41.5065,56.8543 42.5,54.5 Z"/></g>
</svg>
