<?xml version="1.0" standalone="no"?>
<!DOCTYPE svg PUBLIC "-//W3C//DTD SVG 20010904//EN"
 "http://www.w3.org/TR/2001/REC-SVG-20010904/DTD/svg10.dtd">
<svg version="1.0" xmlns="http://www.w3.org/2000/svg"
 width="100.00000pt" height="100.00000pt" viewBox="0 0 300.000000 300.000000"
 preserveAspectRatio="xMidYMid meet"  filter= "invert(98%) sepia(79%) saturate(2476%) hue-rotate(86deg) brightness(118%) contrast(119%)">

<g transform="translate(0.000000,300.000000) scale(0.100000,-0.100000)"
fill="#000000" stroke="none">
<path d="M1038 1887 c144 -144 262 -267 262 -273 0 -6 -9 -19 -20 -29 -21 -19
-24 -16 -290 250 l-270 270 0 -628 0 -627 45 0 45 0 0 512 0 512 35 -34 35
-34 0 -478 0 -478 45 0 45 0 0 432 0 432 35 -34 35 -34 0 -398 0 -398 47 0 48
0 175 175 175 175 175 -175 175 -175 52 0 53 0 0 403 0 403 35 34 35 34 0
-437 0 -437 45 0 45 0 0 483 0 483 35 34 35 34 0 -517 0 -517 50 0 50 0 0 632
-1 632 -562 -562 c-309 -309 -565 -562 -570 -562 -4 0 -7 19 -7 42 l0 43 537
537 538 538 -65 0 -65 0 -465 -465 c-256 -256 -468 -465 -472 -465 -5 0 -8 19
-8 42 l0 43 422 422 423 423 -65 0 -65 0 -177 -177 -178 -178 -178 178 -177
177 -65 0 -65 0 210 -210 209 -209 -24 -26 -24 -26 -236 236 -235 235 -65 0
-65 0 263 -263z m812 -389 l0 -63 -32 32 -32 33 29 30 c16 16 30 30 32 30 2 0
3 -28 3 -62z m-682 -25 c-32 -34 -38 -29 -38 29 l0 52 30 -29 30 -29 -22 -23z
m619 -105 c61 -60 63 -64 63 -113 l0 -50 -90 90 -90 89 22 23 c12 13 24 23 27
23 3 0 34 -28 68 -62z m63 -343 l0 -50 -147 147 -147 147 24 26 24 26 123
-123 123 -123 0 -50z"/>
</g>
</svg>
